<svg xmlns="http://www.w3.org/2000/svg" viewBox="0 0 1200 800" width="1200" height="800"><rect width="1200" height="800" fill="#ecfeff"/><g stroke="#0ea5e9" stroke-width="16" fill="none"><path d="M340 400c0-88 72-160 160-160s160 72 160 160-72 160-160 160-160-72-160-160z"/><path d="M700 400c0-88 72-160 160-160s160 72 160 160-72 160-160 160-160-72-160-160z"/></g><g stroke="#38bdf8" stroke-width="12" fill="none" stroke-linecap="round"><path d="M500 400h200"/><path d="M460 340l-40-40"/><path d="M780 340l40-40"/><path d="M460 460l-40 40"/><path d="M780 460l40 40"/></g></svg>