<svg xmlns="http://www.w3.org/2000/svg" viewBox="0 0 1200 800" width="1200" height="800"><defs><linearGradient id="g" x1="0" y1="0" x2="1" y2="1"><stop offset="0" stop-color="#e6f9f0"/><stop offset="1" stop-color="#e6f0ff"/></linearGradient></defs><rect width="1200" height="800" fill="url(#g)"/><rect x="150" y="100" width="900" height="600" rx="12" fill="#0ea5e9" opacity="0.08"/><rect x="180" y="130" width="840" height="540" rx="8" fill="#065f46"/><g stroke="#ffffff" stroke-width="6" fill="none" opacity="0.9"><rect x="200" y="150" width="800" height="500"/><line x1="600" y1="150" x2="600" y2="650"/><circle cx="600" cy="400" r="60"/></g><g stroke="#ffffff" stroke-width="4" fill="none" opacity="0.9"><rect x="200" y="290" width="100" height="220"/><rect x="900" y="290" width="100" height="220"/></g><g stroke="#10b981" stroke-width="8" fill="none" stroke-linecap="round"><path d="M300,520 C420,420 500,500 560,460"/><path d="M900,300 C820,360 760,420 640,400"/></g><g fill="#ef4444"><circle cx="520" cy="520" r="10"/><circle cx="340" cy="520" r="10"/><circle cx="930" cy="320" r="10"/><circle cx="760" cy="420" r="10"/></g><g fill="#3b82f6"><circle cx="560" cy="460" r="10"/><circle cx="640" cy="400" r="10"/><circle cx="300" cy="520" r="10"/></g><text x="180" y="720" font-family="'Open Sans', sans-serif" font-size="28" fill="#0f172a" opacity="0.7">Tactical board illustration (local asset)</text></svg>